<svg xmlns="http://www.w3.org/2000/svg" xml:space="preserve" id="Layer_1" x="0" y="0" version="1.1" viewBox="0 0 318.6 318.6"><style>.st1,.st6{fill:#e4761b;stroke:#e4761b;stroke-linecap:round;stroke-linejoin:round}.st6{fill:#f6851b;stroke:#f6851b}</style><path fill="#e2761b" stroke="#e2761b" stroke-linecap="round" stroke-linejoin="round" d="m274 36-99 73 18-43z"/><path d="m44 36 99 74-17-44zm194 171-26 40 57 16 16-55zm-204 1 16 55 57-16-27-40z" class="st1"/><path d="m104 138-16 24 56 3-2-61zm111 0-39-35-1 62 56-3zM107 247l34-16-30-23zm71-16 34 16-5-39z" class="st1"/><path fill="#d7c1b3" stroke="#d7c1b3" stroke-linecap="round" stroke-linejoin="round" d="m212 247-34-16 3 22-1 9zm-105 0 31 15v-9l3-22z"/><path fill="#233447" stroke="#233447" stroke-linecap="round" stroke-linejoin="round" d="m139 194-28-9 20-9zm41 0 8-18 20 9z"/><path fill="#cd6116" stroke="#cd6116" stroke-linecap="round" stroke-linejoin="round" d="m107 247 5-40-32 1zm100-40 5 40 26-39zm24-45-56 3 5 29 8-18 20 9zm-120 23 20-9 8 18 5-29-56-3z"/><path fill="#e4751f" stroke="#e4751f" stroke-linecap="round" stroke-linejoin="round" d="m88 162 23 46v-23zm120 23-1 23 24-46zm-64-20-5 28 6 35 2-45zm31 0-3 18 1 45 7-35z"/><path d="m180 194-7 34 5 3 29-23 1-23zm-69-9v23l30 23 4-3-6-35z" class="st6"/><path fill="#c0ad9e" stroke="#c0ad9e" stroke-linecap="round" stroke-linejoin="round" d="m180 262 1-9-3-2h-38l-2 2v9l-31-15 11 9 22 16h38l23-16 11-9z"/><path fill="#161616" stroke="#161616" stroke-linecap="round" stroke-linejoin="round" d="m178 231-5-3h-28l-4 3-3 22 2-2h38l3 2z"/><path fill="#763d16" stroke="#763d16" stroke-linecap="round" stroke-linejoin="round" d="m278 114 9-41-13-37-96 71 37 31 52 16 12-14-5-4 8-7-6-5 8-6zM32 73l8 41-5 4 8 6-6 5 8 7-5 4 11 14 53-16 37-31-97-72z"/><path d="m267 154-52-16 16 24-24 46h78zm-163-16-53 15-17 55h77l-23-46zm71 27 3-58 15-41h-67l15 41 3 58 1 18v45h28v-45z" class="st6"/></svg>